<svg xmlns="http://www.w3.org/2000/svg" fill="#fff" viewBox="0 0 447.19 646.21"><g id="Layer_2" data-name="Layer 2"><g id="Layer_1-2" data-name="Layer 1"><path d="M447.19,401.58C447.19,314.3,374.6,270,282.63,270H232.46l-7-13c46.37-18.24,78.17-57.64,78.17-128.58,0-84-82-128.33-166.59-128.33H0L103.5,195.47H0V470.25H77.27V270H142.9l1.64,3L248.42,465.43H142.9V646.21h77.27V539.79H285.8L342,646.21h89.57l-67.52-127.7C419.82,497.1,447.19,453.9,447.19,401.58Zm-261-218.9c-.12,0-.25.12-.38.12L129.72,75.88c55,0,95.27,11.4,95.27,59.16C225,166.33,199.14,177.23,186.22,182.68Zm85.39,161.26c45.22.76,96.28,7.1,96.28,61.06,0,26.23-17.87,42.19-36.87,51.06Z"/><path d="M339.47,0c-16.74,0-28.56,12.1-28.56,28.7s11.82,28.84,28.56,28.84S367.89,45.3,367.89,28.7,356.07,0,339.47,0Zm0,51.91C325.68,51.91,317,42.35,317,28.7s8.72-23.21,22.51-23.21,22.65,9.56,22.65,23.21S353.12,51.91,339.47,51.91Z"/><path d="M336.07,30.51V42.58h-4.54V15h8.68c5.41,0,9.2,2.6,9.2,7.73,0,3.75-2.06,6.71-6.67,7.5l8.8,12.39H346l-8.3-12.07Zm0-4.07h4.14c2.29,0,4.54-.79,4.54-3.55s-2.29-3.59-4.54-3.59h-4.14Z"/></g></g></svg>