<svg xmlns="http://www.w3.org/2000/svg" viewBox="0 0 810.87 810.87"><defs><style>.cls-1{fill:#fff;}</style></defs><g id="Layer_2" data-name="Layer 2"><g id="Layer_1-2" data-name="Layer 1"><circle cx="405.44" cy="405.44" r="405.44"/><path class="cls-1" d="M583.4,467.9c0-69.47-57.77-104.76-131-104.76H412.49L407,352.75c36.9-14.52,62.21-45.88,62.21-102.35,0-66.85-65.24-102.14-132.59-102.14H227.47l82.38,155.59H227.47v218.7H289V363.14h52.24l1.31,2.42L425.2,518.72h-84V662.61h61.5v-84.7H455l44.77,84.7H571L517.26,561C561.63,543.93,583.4,509.55,583.4,467.9ZM375.69,293.66c-.1,0-.2.1-.3.1l-44.67-85.1c43.76,0,75.83,9.07,75.83,47.09C406.55,280.65,386,289.33,375.69,293.66Zm68,128.36c36,.61,76.64,5.65,76.64,48.6,0,20.88-14.22,33.58-29.35,40.64Z"/><path class="cls-1" d="M497.67,148.26c-13.33,0-22.74,9.63-22.74,22.84s9.41,23,22.74,23,22.62-9.74,22.62-23S510.88,148.26,497.67,148.26Zm0,41.32c-11,0-17.92-7.61-17.92-18.48s6.94-18.47,17.92-18.47,18,7.61,18,18.47S508.53,189.58,497.67,189.58Z"/><path class="cls-1" d="M495,172.54v9.62h-3.61v-22h6.91c4.3,0,7.32,2.07,7.32,6.15,0,3-1.64,5.34-5.31,6l7,9.87h-4.39l-6.6-9.62Zm0-3.23h3.3c1.82,0,3.61-.63,3.61-2.83s-1.82-2.86-3.61-2.86H495Z"/></g></g></svg>