<svg fill="#00" xmlns="http://www.w3.org/2000/svg" viewBox="0 0 2169.72 508.43"><g id="Layer_2" data-name="Layer 2"><g id="Layer_1-2" data-name="Layer 1"><path d="M400,276.76h44.62l70.56,130.72h52.56L488,265c40.32-13.14,60.07-42.47,60.07-78.42,0-56.93-47.35-85.85-107.34-85.85H349.63l68.83,127.5H349.63V407.48H400Zm96.34-87.92c0,20.16-16.19,31.07-30.65,35.95l-42.48-75.86C454.74,148.93,496.38,149.43,496.38,188.84Z"/><path d="M1330.26,276.76h44.61l70.57,130.72H1498L1418.26,265c40.32-13.14,60.07-42.47,60.07-78.42,0-56.93-47.35-85.85-107.34-85.85h-91.14l68.83,127.5h-68.83V407.48h50.41Zm96.34-87.92c0,20.16-16.2,31.07-30.66,35.95l-42.47-75.86C1385,148.93,1426.6,149.43,1426.6,188.84Z"/><polygon points="668.72 100.84 618.33 174.37 618.33 407.57 668.72 407.57 668.72 100.84"/><polygon points="1229.42 359.35 1096.66 359.35 1096.66 276.85 1228.31 276.85 1138.28 149.04 1220.22 149.04 1220.22 100.84 1046.27 100.84 1132.45 228.26 1046.27 228.26 1046.27 407.54 1229.42 407.54 1229.42 359.35"/><polygon points="1832.75 359.35 1699.99 359.35 1699.99 276.85 1831.64 276.85 1741.62 149.04 1823.55 149.04 1823.55 100.84 1649.61 100.84 1735.78 228.26 1649.61 228.26 1649.61 407.54 1832.75 407.54 1832.75 359.35"/><path d="M1977.14,408.21c57.21,0,96.48-34.57,96.48-90.07,0-47.39-33.72-70.44-76-89.23-34.58-15.37-60.62-22.19-60.62-49.09,0-19.21,17.08-32,38.43-32,21.77,0,36.71,8.11,49.94,25.61L2060,142.25c-15.37-22.62-44.4-41.41-84.52-41.41-51.24,0-90.09,31.59-90.09,81.54,0,39.7,26.48,61.47,65.75,79.83l-67.88,96.91C1898.6,384.31,1929.33,408.21,1977.14,408.21Zm20.53-127.46c16.91,9.54,27.75,20.82,27.75,37.29,0,28.61-21.68,42.48-46.82,42.48a65.2,65.2,0,0,1-31.21-7.8Z"/><path d="M151.31,276.93h46c55.2,0,101.64-23.22,101.64-92.38,0-54.79-53.47-83.71-108.66-83.71H100.9l53.3,100.73,13.71,25.86.5.91H100.9V407.57h50.41Zm96.34-88c0,20.57-18.75,29.33-27.1,32.8l-35-71.39C221.38,150.34,247.65,157.77,247.65,188.93Z"/><polygon points="1598.88 407.57 1598.82 100.84 1548.42 174.37 1548.48 407.57 1598.88 407.57"/><polygon points="769.88 262.52 857.5 388.71 945.14 262.52 945.14 407.57 995.52 407.57 995.52 100.84 857.5 301.95 719.49 100.84 719.49 407.57 769.88 407.57 769.88 262.52"/><path d="M0,0V508.43H2169.72V0ZM2121.63,458H48.09V50.4H2121.63Z"/></g></g></svg>