<svg xmlns="http://www.w3.org/2000/svg" viewBox="0 0 448.85 578.22"><g id="Layer_2" data-name="Layer 2"><g id="Layer_1-2" data-name="Layer 1"><path d="M359.62,336.56c0-52.77-43.89-79.58-99.5-79.58H229.79l-4.22-7.89c28-11,47.26-34.85,47.26-77.75,0-50.78-49.55-77.59-100.72-77.59H89.24l62.57,118.19H89.24V378.07H136V257h39.68l1,1.84,62.81,116.34h-63.8V484.47h46.72V420.13H262l34,64.34h54.15l-40.82-77.21C343.07,394.31,359.62,368.19,359.62,336.56ZM201.83,204.2c-.08,0-.15.08-.23.08l-33.93-64.65c33.24,0,57.6,6.9,57.6,35.77C225.27,194.32,209.64,200.91,201.83,204.2Zm51.63,97.51c27.34.46,58.21,4.29,58.21,36.92,0,15.85-10.8,25.5-22.29,30.87Z"/><path d="M0,0V578.22H448.85V0ZM404.27,531.19H44.58V47H404.27Z"/></g></g></svg>